<?xml version="1.0" encoding="utf-8"?>
<!-- Generator: Adobe Illustrator 24.0.1, SVG Export Plug-In . SVG Version: 6.00 Build 0)  -->
<svg version="1.0" id="Layer_1" xmlns="http://www.w3.org/2000/svg" xmlns:xlink="http://www.w3.org/1999/xlink" x="0px" y="0px"
	 viewBox="0 0 512 512" style="enable-background:new 0 0 512 512;" xml:space="preserve">
<g>
	<path style="fill:#231F20;" d="M194.6,309.2H95.8c-2.7,0-5.2-1.4-6.5-3.8l-49.4-85.6c-1.3-2.3-1.3-5.2,0-7.5l49.4-85.6
		c1.3-2.3,3.8-3.8,6.5-3.8h98.8c2.7,0,5.2,1.4,6.5,3.8l49.4,85.6c2.1,3.6,0.8,8.2-2.7,10.2c-3.6,2.1-8.2,0.8-10.2-2.7l-47.2-81.8
		h-90.1l-45.1,78.1l45.1,78.1h94.5c4.1,0,7.5,3.4,7.5,7.5S198.7,309.2,194.6,309.2z"/>
</g>
<g>
	<path style="fill:#231F20;" d="M74.6,223.6c-1.3,0-2.6-0.3-3.7-1c-3.6-2.1-4.8-6.7-2.7-10.2l35.3-61.1c1.3-2.3,3.8-3.8,6.5-3.8
		h70.6c4.1,0,7.5,3.4,7.5,7.5s-3.4,7.5-7.5,7.5h-66.2l-33.1,57.4C79.7,222.3,77.2,223.6,74.6,223.6z"/>
</g>
<g>
	<path style="fill:#231F20;" d="M342.6,394.4h-98.8c-2.7,0-5.2-1.4-6.5-3.8l-49.4-85.6c-1.3-2.3-1.3-5.2,0-7.5l49.4-85.6
		c1.3-2.3,3.8-3.8,6.5-3.8h98.8c2.7,0,5.2,1.4,6.5,3.8l49.4,85.6c1.3,2.3,1.3,5.2,0,7.5l-49.4,85.6
		C347.8,393,345.3,394.4,342.6,394.4z M248.1,379.4h90.1l45.1-78.1l-45.1-78.1h-90.1l-45.1,78.1L248.1,379.4z"/>
</g>
<g>
	<path style="fill:#231F20;" d="M326.6,366.8h-66.9c-4.1,0-7.5-3.4-7.5-7.5s3.4-7.5,7.5-7.5h62.5l31.3-54.2
		c2.1-3.6,6.7-4.8,10.2-2.7s4.8,6.7,2.7,10.2L333.1,363C331.8,365.3,329.3,366.8,326.6,366.8z"/>
</g>
<g>
	<path style="fill:#231F20;" d="M198.7,141.3c-1.3,0-2.7-0.4-3.9-1.1c-3.5-2.2-4.7-6.8-2.5-10.3l25.1-41.1c2.2-3.5,6.8-4.7,10.3-2.5
		c3.5,2.2,4.7,6.8,2.5,10.3l-25.1,41.1C203.7,140,201.3,141.3,198.7,141.3z"/>
</g>
<g>
	<path style="fill:#231F20;" d="M94.2,138.4c-2.5,0-5-1.3-6.4-3.6L64.1,95.4c-2.1-3.6-1-8.2,2.6-10.3c3.6-2.1,8.2-1,10.3,2.6
		l23.6,39.4c2.1,3.6,1,8.2-2.6,10.3C96.8,138.1,95.5,138.4,94.2,138.4z"/>
</g>
<g>
	<path style="fill:#231F20;" d="M361.3,425.9c-2.6,0-5.1-1.3-6.5-3.7L335,388.9c-2.1-3.6-0.9-8.2,2.6-10.3c3.6-2.1,8.2-0.9,10.3,2.6
		l19.8,33.4c2.1,3.6,0.9,8.2-2.6,10.3C363.9,425.6,362.6,425.9,361.3,425.9z"/>
</g>
<g>
	<path style="fill:#231F20;" d="M72.8,347.7c-1.3,0-2.7-0.4-3.9-1.1c-3.5-2.2-4.6-6.8-2.5-10.3L89.8,298c2.2-3.5,6.8-4.6,10.3-2.5
		c3.5,2.2,4.6,6.8,2.5,10.3l-23.4,38.2C77.7,346.4,75.3,347.7,72.8,347.7z"/>
</g>
<g>
	<circle style="fill:#00AEEF;" cx="235.8" cy="72.6" r="22.4"/>
	<path style="fill:#231F20;" d="M235.8,102.5c-16.5,0-29.9-13.4-29.9-29.9s13.4-29.9,29.9-29.9s29.9,13.4,29.9,29.9
		S252.3,102.5,235.8,102.5z M235.8,57.7c-8.2,0-14.9,6.7-14.9,14.9c0,8.2,6.7,14.9,14.9,14.9c8.2,0,14.9-6.7,14.9-14.9
		C250.7,64.4,244,57.7,235.8,57.7z"/>
</g>
<g>
	<circle style="fill:#994BDD;" cx="59.1" cy="72.6" r="22.4"/>
	<path style="fill:#231F20;" d="M59.1,102.5c-16.5,0-29.9-13.4-29.9-29.9s13.4-29.9,29.9-29.9S89,56.1,89,72.6
		S75.6,102.5,59.1,102.5z M59.1,57.7c-8.2,0-14.9,6.7-14.9,14.9c0,8.2,6.7,14.9,14.9,14.9S74,80.9,74,72.6
		C74,64.4,67.3,57.7,59.1,57.7z"/>
</g>
<g>
	<circle style="fill:#FBB040;" cx="373.9" cy="439.5" r="22.4"/>
	<path style="fill:#231F20;" d="M373.9,469.4c-16.5,0-29.9-13.4-29.9-29.9s13.4-29.9,29.9-29.9s29.9,13.4,29.9,29.9
		S390.4,469.4,373.9,469.4z M373.9,424.6c-8.2,0-14.9,6.7-14.9,14.9s6.7,14.9,14.9,14.9s14.9-6.7,14.9-14.9S382.2,424.6,373.9,424.6
		z"/>
</g>
<g>
	<circle style="fill:#F7414E;" cx="452.9" cy="298.7" r="22.4"/>
	<path style="fill:#231F20;" d="M452.9,328.6c-16.5,0-29.9-13.4-29.9-29.9s13.4-29.9,29.9-29.9s29.9,13.4,29.9,29.9
		S469.4,328.6,452.9,328.6z M452.9,283.7c-8.2,0-14.9,6.7-14.9,14.9s6.7,14.9,14.9,14.9s14.9-6.7,14.9-14.9S461.1,283.7,452.9,283.7
		z"/>
</g>
<g>
	<path style="fill:#231F20;" d="M223,425.9c-1.3,0-2.7-0.4-3.9-1.1c-3.5-2.2-4.6-6.8-2.4-10.3l20.3-32.9c2.2-3.5,6.8-4.6,10.3-2.4
		c3.5,2.2,4.6,6.8,2.4,10.3l-20.3,32.9C228,424.7,225.5,425.9,223,425.9z"/>
</g>
<g>
	<circle style="fill:#F482B6;" cx="208.7" cy="439.5" r="22.4"/>
	<path style="fill:#231F20;" d="M208.7,469.4c-16.5,0-29.9-13.4-29.9-29.9s13.4-29.9,29.9-29.9s29.9,13.4,29.9,29.9
		S225.2,469.4,208.7,469.4z M208.7,424.6c-8.2,0-14.9,6.7-14.9,14.9s6.7,14.9,14.9,14.9s14.9-6.7,14.9-14.9S216.9,424.6,208.7,424.6
		z"/>
</g>
<g>
	<circle style="fill:#00A79D;" cx="60" cy="359.7" r="22.4"/>
	<path style="fill:#231F20;" d="M60,389.6c-16.5,0-29.9-13.4-29.9-29.9s13.4-29.9,29.9-29.9s29.9,13.4,29.9,29.9
		S76.5,389.6,60,389.6z M60,344.7c-8.2,0-14.9,6.7-14.9,14.9c0,8.2,6.7,14.9,14.9,14.9s14.9-6.7,14.9-14.9
		C74.9,351.4,68.2,344.7,60,344.7z"/>
</g>
<g>
	<path style="fill:#231F20;" d="M429,308h-36.8c-4.1,0-7.5-3.4-7.5-7.5s3.4-7.5,7.5-7.5H429c4.1,0,7.5,3.4,7.5,7.5
		S433.2,308,429,308z"/>
</g>
</svg>
